{"title":"Nurse 2013 HDRIP x264 AC3 TiTAN","uid":9593706,"size":812861254,"categoryP":"video","categoryS":"movies","magnet":"?xt=urn:btih:82de62f1c08568b9d72980bd3983833f2259be05&amp;dn=Nurse+2013+HDRIP+x264+AC3+TiTAN&amp;tr=udp%3A%2F%2Ftracker.openbittorrent.com%3A80&amp;tr=udp%3A%2F%2Fopen.demonii.com%3A1337&amp;tr=udp%3A%2F%2Ftracker.coppersurfer.tk%3A6969&amp;tr=udp%3A%2F%2Fexodus.desync.com%3A6969","seeders":1,"leechers":1,"uploader":".BONE.","files":2,"time":1391967668,"description":" &lt;a href=&quot;http://www.imdb.com/title/tt1913166/&quot; rel=&quot;nofollow&quot; target=&quot;_NEW&quot;&gt;http://www.imdb.com/title/tt1913166/&lt;/a&gt;\n\nSource Itunes\n\nGeneral\n\nFormat : Matroska\nFormat version : Version 2\nFile size : 775 MiB\nDuration : 1h 23mn\nOverall bit rate mode : Variable\nOverall bit rate : 1 292 Kbps\nEncoded date : UTC 2014-02-09 21:58:37\nWriting application : mkvmerge v6.7.0 ('Back to the Ground') 32bit built on Jan 8 2014 15:03:17\nWriting library : libebml v1.3.0 + libmatroska v1.4.1\n\nVideo\nID : 1\nFormat : AVC\nFormat/Info : Advanced Video Codec\nFormat profile : &lt;a class=&quot;__cf_email__&quot; href=&quot;/cdn-cgi/l/email-protection&quot; data-cfemail=&quot;80c8e9e7e8c0ccb4aeb1&quot;&gt;[email&amp;#160;protected]&lt;/a&gt;&lt;script cf-hash='f9e31' type=&quot;text/javascript&quot;&gt;\n/* &lt;![CDATA[ */!function(){try{var t=&quot;currentScript&quot;in document?document.currentScript:function(){for(var t=document.getElementsByTagName(&quot;script&quot;),e=t.length;e--;)if(t[e].getAttribute(&quot;cf-hash&quot;))return t[e]}();if(t&amp;&amp;t.previousSibling){var e,r,n,i,c=t.previousSibling,a=c.getAttribute(&quot;data-cfemail&quot;);if(a){for(e=&quot;&quot;,r=parseInt(a.substr(0,2),16),n=2;a.length-n;n+=2)i=parseInt(a.substr(n,2),16)^r,e+=String.fromCharCode(i);e=document.createTextNode(e),c.parentNode.replaceChild(e,c)}}}catch(u){}}();/* ]]&gt; */&lt;/script&gt;\nFormat settings, CABAC : Yes\nFormat settings, ReFrames : 3 frames\nCodec ID : V_MPEG4/ISO/AVC\nDuration : 1h 23mn\nBit rate mode : Variable\nBit rate : 882 Kbps\nMaximum bit rate : 40.0 Mbps\nWidth : 720 pixels\nHeight : 304 pixels\nDisplay aspect ratio : 2.35:1\nFrame rate mode : Constant\nFrame rate : 23.976 fps\nColor space : YUV\nChroma subsampling : 4:2:0\nBit depth : 8 bits\nScan type : Progressive\nBits/(Pixel*Frame) : 0.168\nStream size : 529 MiB (68%)\nWriting library : x264 core 142 r2389 956c8d8\nDefault : Yes\nForced : No\nColor primaries : BT.709\nTransfer characteristics : BT.709\nMatrix coefficients : BT.709\n\nAudio\nID : 2\nFormat : AC-3\nFormat/Info : Audio Coding 3\nMode extension : CM (complete main)\nFormat settings, Endianness : Big\nCodec ID : A_AC3\nDuration : 1h 23mn\nBit rate mode : Constant\nBit rate : 384 Kbps\nChannel(s) : 6 channels\nChannel positions : Front: L C R, Side: L R, LFE\nSampling rate : 48.0 KHz\nBit depth : 16 bits\nCompression mode : Lossy\nStream size : 230 MiB (30%)\nLanguage : English\nDefault : Yes\nForced : No","torrent":{"xt":"urn:btih:82de62f1c08568b9d72980bd3983833f2259be05","amp;dn":"Nurse+2013+HDRIP+x264+AC3+TiTAN","amp;tr":["udp%3A%2F%2Ftracker.openbittorrent.com%3A80","udp%3A%2F%2Fopen.demonii.com%3A1337","udp%3A%2F%2Ftracker.coppersurfer.tk%3A6969","udp%3A%2F%2Fexodus.desync.com%3A6969"],"infoHash":"82de62f1c08568b9d72980bd3983833f2259be05","infoHashBuffer":{"type":"Buffer","data":[130,222,98,241,192,133,104,185,215,41,128,189,57,131,131,63,34,89,190,5]},"announce":[],"urlList":[]}}